# xmcd CD database file
#
# Track frame offsets:
#	150
#	23455
#	46825
#	76025
#	96385
#	128045
#	152625
#	184925
#	210755
#	232410
#
# Disc length: 3589 seconds
#
# Revision: 0
# Processed by: cddbd v1.5.1PL0 Copyright (c) Steve Scherf et al.
# Submitted via: CDex 1.51
#
DISCID=720e030a
DTITLE=Eivind Aarset - Connected
DYEAR=2004
DGENRE=Jazz
TTITLE0=Family Pictures 1
TTITLE1=Electro Magnetic in E
TTITLE2=Connectic
TTITLE3=Feverish
TTITLE4=Silk Worm
TTITLE5=Nagabo Tomora
TTITLE6=Blue in E
TTITLE7=Transmission
TTITLE8=Family Pictures 2
TTITLE9=Changing Waltz
EXTD=YEAR: 2004
EXTT0=
EXTT1=
EXTT2=
EXTT3=
EXTT4=
EXTT5=
EXTT6=
EXTT7=
EXTT8=
EXTT9=
PLAYORDER=
